<svg id="Layer_1" data-name="Layer 1" xmlns="http://www.w3.org/2000/svg" viewBox="0 0 917.31 192.43"><defs><style>.cls-1,.cls-3{fill:#7b8c37;}.cls-1{opacity:0.9;}.cls-2,.cls-4{fill:#ffc80b;}.cls-2{opacity:0.84;}.cls-5{fill:#444;}</style></defs><title>m1pay-OG-logo</title><rect class="cls-1" x="93.59" y="14.09" width="66.11" height="189.51" rx="33.06" transform="translate(243.2 77.98) rotate(135)"/><rect class="cls-1" x="176.26" y="13.99" width="65.1" height="167.77" rx="32.55"/><rect class="cls-2" x="181.84" y="14.09" width="66.11" height="189.51" rx="33.06" transform="translate(89.95 -138.36) rotate(45)"/><rect class="cls-1" y="13.91" width="65.1" height="167.77" rx="32.55"/><path class="cls-3" d="M531.1,144.67l-.05-1.25L515,56.77a9.26,9.26,0,0,0-3.28-5.53c-.18-.16-.37-.3-.56-.44l-.07,0a9.28,9.28,0,0,0-1.86-1h0a9.35,9.35,0,0,0-12.18,5.15L458.93,149,420.8,54.94a9.35,9.35,0,0,0-12.18-5.16h0a9.85,9.85,0,0,0-1.86,1l-.06,0c-.19.14-.39.28-.57.43a9.35,9.35,0,0,0-3.27,5.54l-16,86.65-.06,1.25h-.06v38.55h18.7V145.81l10-54.27,34.8,85.89a9.35,9.35,0,0,0,12.18,5.16h0a9.26,9.26,0,0,0,4.29-3.53l0-.06c.15-.22.28-.45.41-.68s.18-.38.27-.57l.1-.21c0-.06.05-.1.07-.16l34.81-85.89,10,54.27v37.47h18.7V144.67Z" transform="translate(-49.96 -18.29)"/><path class="cls-4" d="M667.18,49.16H610.1v20.7h57.08c18.52,0,28.32,13.51,28.32,28.54,0,14.81-10,28.32-28.32,28.32H628.77l8.75,20.7h29.66c30.72,0,49.89-22,49.89-49C717.07,71.17,698.33,49.16,667.18,49.16Z" transform="translate(-49.96 -18.29)"/><path class="cls-4" d="M869.3,185H838.51L781.93,78.85,725.34,185H694.56L762,62.8a21.68,21.68,0,0,1,19-11.19h0a24.54,24.54,0,0,1,21.46,12.63Z" transform="translate(-49.96 -18.29)"/><polygon class="cls-4" points="889.41 33.32 844.37 96.56 799.33 33.32 771.43 33.32 831.83 117.14 832.08 166.66 856.65 166.66 856.91 117.14 917.31 33.32 889.41 33.32"/><rect class="cls-5" x="284.05" width="6.54" height="192.43"/><polygon class="cls-3" points="496.22 30.88 496.22 52.62 516.87 52.62 516.87 164.95 538.09 164.95 538.09 30.88 496.22 30.88"/></svg>